<svg xmlns="http://www.w3.org/2000/svg" fill="none" viewBox="0 0 16 16" id="Binoculars--Streamline-Core.svg" height="16" width="16"><desc>Binoculars Streamline Icon: https://streamlinehq.com</desc><g id="binoculars--binocular-binoculars-view-zoom"><path id="Vector" stroke="#000000" stroke-linecap="round" stroke-linejoin="round" d="M4 14.857142857142856C5.577954285714285 14.857142857142856 6.857142857142857 13.577942857142855 6.857142857142857 12 6.857142857142857 10.422045714285714 5.577954285714285 9.142857142857142 4 9.142857142857142S1.1428571428571428 10.422045714285714 1.1428571428571428 12C1.1428571428571428 13.577942857142855 2.422045714285714 14.857142857142856 4 14.857142857142856Z" stroke-width="1"></path><path id="Vector 3955" stroke="#000000" stroke-linecap="round" stroke-linejoin="round" d="M1.1428571428571428 12v-0.32057142857142856c0 -0.16674285714285714 0.01825142857142857 -0.33299428571428574 0.05443428571428571 -0.4957942857142857l2.0324 -9.14584C3.3458971428571425 1.5148914285714286 3.80968 1.1428571428571428 4.345337142857143 1.1428571428571428H5.7142857142857135c0.6311771428571428 0 1.1428571428571428 0.51168 1.1428571428571428 1.1428571428571428v1.7142857142857142" stroke-width="1"></path><path id="Vector 3956" stroke="#000000" stroke-linecap="round" stroke-linejoin="round" d="M14.857142857142856 12v-0.32057142857142856c0 -0.16674285714285714 -0.018285714285714284 -0.33299428571428574 -0.054400000000000004 -0.4957942857142857L12.770285714285713 2.0377942857142854C12.654057142857143 1.5148914285714286 12.190285714285713 1.1428571428571428 11.654628571428571 1.1428571428571428H10.285714285714285c-0.6311771428571428 0 -1.1428571428571428 0.51168 -1.1428571428571428 1.1428571428571428v1.7142857142857142" stroke-width="1"></path><path id="Vector_2" stroke="#000000" stroke-linecap="round" stroke-linejoin="round" d="M5.142857142857142 6.285714285714286h5.7142857142857135" stroke-width="1"></path><path id="Vector_3" stroke="#000000" stroke-linecap="round" stroke-linejoin="round" d="M6.857142857142857 8.571428571428571v3.4285714285714284" stroke-width="1"></path><path id="Vector_4" stroke="#000000" stroke-linecap="round" stroke-linejoin="round" d="M12 14.857142857142856c1.577942857142857 0 2.8571428571428568 -1.2792 2.8571428571428568 -2.8571428571428568C14.857142857142856 10.422045714285714 13.577942857142855 9.142857142857142 12 9.142857142857142 10.422045714285714 9.142857142857142 9.142857142857142 10.422045714285714 9.142857142857142 12c0 1.577942857142857 1.2791885714285713 2.8571428571428568 2.8571428571428568 2.8571428571428568Z" stroke-width="1"></path><path id="Vector_5" stroke="#000000" stroke-linecap="round" stroke-linejoin="round" d="M9.142857142857142 8.571428571428571v3.4285714285714284" stroke-width="1"></path></g></svg>