<svg width="17" height="18" viewBox="0 0 17 18" fill="none" xmlns="http://www.w3.org/2000/svg">
<path d="M13.423 5.92308C14.7824 5.92308 15.8845 4.82101 15.8845 3.46154C15.8845 2.10207 14.7824 1 13.423 1C12.0635 1 10.9614 2.10207 10.9614 3.46154C10.9614 4.82101 12.0635 5.92308 13.423 5.92308Z" stroke="#707070" stroke-linecap="round" stroke-linejoin="round"/>
<path d="M13.4231 8.38477C10.3462 8.38477 10.3462 17.0001 10.3462 17.0001H16.5C16.5 17.0001 16.5 8.38477 13.4231 8.38477Z" stroke="#707070" stroke-linecap="round" stroke-linejoin="round"/>
<path d="M3.57677 5.92308C4.93624 5.92308 6.03831 4.82101 6.03831 3.46154C6.03831 2.10207 4.93624 1 3.57677 1C2.2173 1 1.11523 2.10207 1.11523 3.46154C1.11523 4.82101 2.2173 5.92308 3.57677 5.92308Z" stroke="#707070" stroke-linecap="round" stroke-linejoin="round"/>
<path d="M3.57692 17.0001C0.5 17.0001 0.5 8.38477 0.5 8.38477H6.65385C6.65385 8.38477 6.65385 17.0001 3.57692 17.0001Z" stroke="#707070" stroke-linecap="round" stroke-linejoin="round"/>
</svg>
