<svg xmlns="http://www.w3.org/2000/svg" fill="none" viewBox="0 0 16 16" id="Magic-Wand--Streamline-Micro.svg" height="16" width="16"><desc>Magic Wand Streamline Icon: https://streamlinehq.com</desc><path stroke="#000000" stroke-linecap="round" stroke-linejoin="round" d="m0.8 15.200000000000001 7.2448 -7.2448" stroke-width="1"></path><path stroke="#000000" stroke-linecap="round" stroke-linejoin="round" d="m14.374400000000001 2.1776 -0.9952000000000001 2.7696000000000005a0.43200000000000005 0.43200000000000005 0 0 0 0.054400000000000004 0.40640000000000004l1.6832000000000003 2.2864a0.4608 0.4608 0 0 1 -0.3776 0.7184L11.840000000000002 8.388800000000002a0.4688 0.4688 0 0 0 -0.3728 0.1952L9.732800000000001 10.9936a0.43840000000000007 0.43840000000000007 0 0 1 -0.784 -0.10720000000000002l-0.8 -2.7520000000000002a0.41600000000000004 0.41600000000000004 0 0 0 -0.2864 -0.2864l-2.7520000000000002 -0.8a0.43840000000000007 0.43840000000000007 0 0 1 -0.10720000000000002 -0.784l2.4128000000000003 -1.7280000000000002a0.4688 0.4688 0 0 0 0.1952 -0.376L7.6416 1.2608000000000001a0.4608 0.4608 0 0 1 0.7184 -0.3776L10.6464 2.5600000000000005a0.43200000000000005 0.43200000000000005 0 0 0 0.40640000000000004 0.054400000000000004l2.7696000000000005 -0.9952000000000001a0.4272 0.4272 0 0 1 0.5519999999999999 0.5584v0Z" stroke-width="1"></path></svg>