<svg width="14" height="15" viewBox="0 0 14 15" fill="none" xmlns="http://www.w3.org/2000/svg">
<path d="M4.65 2.73999L4.26 2.82999C4.29532 2.9837 4.29974 3.1429 4.27299 3.29833C4.24624 3.45376 4.18886 3.60232 4.10419 3.73538C4.01951 3.86844 3.90923 3.98334 3.77976 4.0734C3.65029 4.16346 3.5042 4.22689 3.35 4.25999C3.03731 4.32577 2.7113 4.26624 2.44203 4.09421C2.17276 3.92217 1.98173 3.65137 1.91 3.33999L1.13 3.49999C1.02303 3.52333 0.92191 3.56811 0.832736 3.63163C0.743562 3.69515 0.668191 3.77609 0.611176 3.86956C0.554161 3.96302 0.516686 4.06708 0.501016 4.17543C0.485345 4.28379 0.491804 4.3942 0.520002 4.49999C0.520002 4.49999 0.880002 6.16999 1.3 8.04999" stroke="#000001" stroke-linecap="round" stroke-linejoin="round"/>
<path d="M12.15 2.72998C12.0902 2.89836 11.9969 3.05285 11.8757 3.18411C11.7545 3.31536 11.6079 3.42064 11.4448 3.49356C11.2816 3.56648 11.1054 3.60553 10.9268 3.60834C10.7481 3.61114 10.5708 3.57766 10.4054 3.5099C10.2401 3.44215 10.0903 3.34153 9.96498 3.21416C9.83969 3.08678 9.74156 2.93529 9.67653 2.76888C9.61151 2.60246 9.58095 2.42457 9.5867 2.24599C9.59246 2.06742 9.63441 1.89187 9.71 1.72998L8.9 1.34998C8.68371 1.25984 8.4406 1.25864 8.22343 1.34663C8.00626 1.43462 7.83255 1.60471 7.74 1.81998L4.38 9.72998L3.94 10.73C3.84987 10.9463 3.84866 11.1894 3.93666 11.4065C4.02465 11.6237 4.19473 11.7974 4.41 11.89L8.47 13.62C8.68629 13.7101 8.92941 13.7113 9.14658 13.6233C9.36375 13.5353 9.53746 13.3652 9.63 13.15L13.43 4.20998C13.5138 4.00209 13.5161 3.77024 13.4363 3.56075C13.3566 3.35127 13.2008 3.17958 13 3.07998L12.15 2.72998Z" stroke="#000001" stroke-linecap="round" stroke-linejoin="round"/>
</svg>
